0
SECTION
2
HEADER
9
$INSUNITS
70
4
0
ENDSEC
0
SECTION
2
TABLES
0
TABLE
2
LTYPE
0
LTYPE
72
65
70
64
2
CONTINUOUS
3
______
73
0
40
0
0
ENDTAB
0
TABLE
2
LAYER
0
ENDTAB
0
ENDSEC
0
SECTION
2
ENTITIES
0
LINE
8
0
10
27.5
20
-8
11
27.5
21
42
0
LINE
8
0
10
27.5
20
42
11
45.5
21
42
0
LINE
8
0
10
45.5
20
42
11
45.5
21
48
0
LINE
8
0
10
45.5
20
48
11
63.5
21
48
0
LINE
8
0
10
63.5
20
48
11
63.5
21
51
0
LINE
8
0
10
63.5
20
51
11
80.5
21
51
0
LINE
8
0
10
80.5
20
51
11
80.5
21
49
0
LINE
8
0
10
80.5
20
49
11
98.5
21
49
0
LINE
8
0
10
98.5
20
49
11
98.5
21
47.5
0
LINE
8
0
10
98.5
20
47.5
11
138.64
21
47.5
0
LINE
8
0
10
138.64
20
47.5
11
138.64
21
-4.5
0
LINE
8
0
10
138.64
20
-4.5
11
99.5
21
-2.5
0
LINE
8
0
10
99.5
20
-2.5
11
99.5
21
-1
0
LINE
8
0
10
99.5
20
-1
11
81.5
21
-1
0
LINE
8
0
10
81.5
20
-1
11
81.5
21
1
0
LINE
8
0
10
81.5
20
1
11
63
21
1
0
LINE
8
0
10
63
20
1
11
62.5
21
0
0
LINE
8
0
10
62.5
20
0
11
62.5
21
-2
0
LINE
8
0
10
62.5
20
-2
11
45
21
-2
0
LINE
8
0
10
45
20
-2
11
44.5
21
-6
0
LINE
8
0
10
44.5
20
-6
11
44.5
21
-8
0
LINE
8
0
10
44.5
20
-8
11
27.5
21
-8
0
LINE
8
0
10
44.5
20
43
11
27.5
21
43
0
LINE
8
0
10
27.5
20
43
11
27.5
21
59
0
LINE
8
0
10
27.5
20
59
11
45.5
21
59
0
LINE
8
0
10
45.5
20
59
11
45.5
21
65
0
LINE
8
0
10
45.5
20
65
11
63.5
21
65
0
LINE
8
0
10
63.5
20
65
11
63.5
21
68
0
LINE
8
0
10
63.5
20
68
11
80.5
21
68
0
LINE
8
0
10
80.5
20
68
11
80.5
21
66
0
LINE
8
0
10
80.5
20
66
11
98.5
21
66
0
LINE
8
0
10
98.5
20
66
11
98.5
21
64.5
0
LINE
8
0
10
98.5
20
64.5
11
116.5
21
64.5
0
LINE
8
0
10
116.5
20
64.5
11
116.5
21
48.5
0
LINE
8
0
10
116.5
20
48.5
11
99.5
21
48.5
0
LINE
8
0
10
99.5
20
48.5
11
99.5
21
50
0
LINE
8
0
10
99.5
20
50
11
81.5
21
50
0
LINE
8
0
10
81.5
20
50
11
81.5
21
52
0
LINE
8
0
10
81.5
20
52
11
62.5
21
52
0
LINE
8
0
10
62.5
20
52
11
62.5
21
49
0
LINE
8
0
10
62.5
20
49
11
44.5
21
49
0
LINE
8
0
10
44.5
20
49
11
44.5
21
43
0
ENDSEC
0
EOF