0
SECTION
2
HEADER
9
$INSUNITS
70
4
0
ENDSEC
0
SECTION
2
TABLES
0
TABLE
2
LTYPE
0
LTYPE
72
65
70
64
2
CONTINUOUS
3
______
73
0
40
0
0
ENDTAB
0
TABLE
2
LAYER
0
ENDTAB
0
ENDSEC
0
SECTION
2
ENTITIES
0
LINE
8
0
10
95.0841953
20
37.4470717
11
86.9153741
21
-41.8185942
0
LINE
8
0
10
85.3470661
20
-42.5352329
11
71.9962004
21
-33.1868561
0
LINE
8
0
10
71.9962004
20
-33.1868561
11
72.199843
21
-33.3044292
0
LINE
8
0
10
72.199843
20
-33.3044292
11
55.8863029
21
-25.6973005
0
LINE
8
0
10
55.8863029
20
-25.6973005
11
56.107268
21
-25.7777253
0
LINE
8
0
10
56.107268
20
-25.7777253
11
36.8019919
21
-20.6048922
0
LINE
8
0
10
36.7754249
20
-20.5981623
11
-11.4696783
21
-9.0781337
0
LINE
8
0
10
-12.2276944
20
-7.9663049
11
-4.8389186
21
44.6075675
0
LINE
8
0
10
-3.7094799
20
45.4586628
11
16.1611667
21
42.6660761
0
LINE
8
0
10
17.2784849
20
43.4484328
11
19.5277666
21
54.0304713
0
LINE
8
0
10
20.712886
20
54.8009065
11
39.5698578
21
50.8116648
0
LINE
8
0
10
40.7427554
20
51.5311927
11
42.4385244
21
57.8598885
0
LINE
8
0
10
43.6632692
20
58.5669953
11
62.9817857
21
53.3906144
0
LINE
8
0
10
63.6888925
20
52.1658695
11
63.1065497
21
49.9925364
0
LINE
8
0
10
63.8136565
20
48.7677915
11
79.2684696
21
44.6266869
0
LINE
8
0
10
79.9755764
20
43.401942
11
79.9755764
21
43.401942
0
LINE
8
0
10
80.6826832
20
42.1771971
11
94.3482827
21
38.5155108
0
ARC
8
0
10
85.9206425
20
-41.7160809
40
1
50
235.0000003
51
354.1160839
0
ARC
8
0
10
36.5431729
20
-21.570818
40
1
50
75.0000021
51
76.570308
0
ARC
8
0
10
-11.2374263
20
-8.105478
40
1
50
172.0000003
51
256.570308
0
ARC
8
0
10
-3.8486505
20
44.4683944
40
1
50
82.0001445
51
172.0000003
0
ARC
8
0
10
16.3003373
20
43.6563445
40
1
50
262.0001445
51
347.9999995
0
ARC
8
0
10
20.5059142
20
53.8225596
40
1
50
78.0550491
51
167.9999995
0
ARC
8
0
10
39.7768296
20
51.7900117
40
1
50
258.0550491
51
345.0000021
0
ARC
8
0
10
43.4044502
20
57.6010695
40
1
50
75.0000021
51
165.0000021
0
ARC
8
0
10
62.7229667
20
52.4246886
40
1
50
344.9999966
51
75.0000021
0
ARC
8
0
10
64.0724755
20
49.7337173
40
1
50
164.9999966
51
255.0000021
0
ARC
8
0
10
79.0096506
20
43.6607611
40
1
50
344.9999966
51
75.0000021
0
ARC
8
0
10
80.9415022
20
43.1431229
40
1
50
164.9999966
51
255.0000021
0
ARC
8
0
10
94.0894637
20
37.549585
40
1
50
354.1160839
51
75.0000021
0
ENDSEC
0
EOF