0
SECTION
2
HEADER
9
$INSUNITS
70
4
0
ENDSEC
0
SECTION
2
TABLES
0
TABLE
2
LTYPE
0
LTYPE
72
65
70
64
2
CONTINUOUS
3
______
73
0
40
0
0
ENDTAB
0
TABLE
2
LAYER
0
ENDTAB
0
ENDSEC
0
SECTION
2
ENTITIES
0
LINE
8
0
10
44
20
42.75
11
41.5
21
42.75
0
LINE
8
0
10
30.5
20
42.75
11
28
21
42.75
0
LINE
8
0
10
39.5
20
42.75
11
32.5
21
42.75
0
LINE
8
0
10
27.25
20
43.5
11
27.25
21
45.75
0
LINE
8
0
10
27.25
20
56.25
11
27.25
21
58.5
0
LINE
8
0
10
27.25
20
47.75
11
27.25
21
54.25
0
LINE
8
0
10
28
20
59.25
11
44.5
21
59.25
0
LINE
8
0
10
45.25
20
60
11
45.25
21
64.5
0
LINE
8
0
10
46
20
65.25
11
62.5
21
65.25
0
LINE
8
0
10
63.25
20
66
11
63.25
21
67.5
0
LINE
8
0
10
64
20
68.25
11
80
21
68.25
0
LINE
8
0
10
80.75
20
67.5
11
80.75
21
67
0
LINE
8
0
10
81.5
20
66.25
11
98
21
66.25
0
LINE
8
0
10
98.75
20
65.5
11
98.75
21
65.25
0
LINE
8
0
10
99.5
20
64.5
11
116
21
64.5
0
LINE
8
0
10
116.75
20
63.75
11
116.75
21
48.75
0
LINE
8
0
10
116
20
48
11
113.5
21
48
0
LINE
8
0
10
102.5
20
48
11
100
21
48
0
LINE
8
0
10
111.5
20
48
11
104.5
21
48
0
LINE
8
0
10
99.25
20
48.75
11
99.25
21
49
0
LINE
8
0
10
98.5
20
49.75
11
95.5
21
49.75
0
LINE
8
0
10
84.5
20
49.75
11
82
21
49.75
0
LINE
8
0
10
93.5
20
49.75
11
86.5
21
49.75
0
LINE
8
0
10
81.25
20
50.5
11
81.25
21
51
0
LINE
8
0
10
80.5
20
51.75
11
77.5
21
51.75
0
LINE
8
0
10
66.5
20
51.75
11
63.5
21
51.75
0
LINE
8
0
10
75.5
20
51.75
11
68.5
21
51.75
0
LINE
8
0
10
62.75
20
51
11
62.75
21
49.5
0
LINE
8
0
10
62
20
48.75
11
59.5
21
48.75
0
LINE
8
0
10
48.5
20
48.75
11
45.5
21
48.75
0
LINE
8
0
10
57.5
20
48.75
11
50.5
21
48.75
0
LINE
8
0
10
44.75
20
48
11
44.75
21
43.5
0
LINE
8
0
10
9.25
20
-7.5
11
9.25
21
41.5
0
LINE
8
0
10
10
20
42.25
11
12.5
21
42.25
0
LINE
8
0
10
14.5
20
42.25
11
21.5
21
42.25
0
LINE
8
0
10
23.5
20
42.25
11
26
21
42.25
0
LINE
8
0
10
26.75
20
41.5
11
26.75
21
39.25
0
LINE
8
0
10
26.75
20
37.25
11
26.75
21
30.75
0
LINE
8
0
10
26.75
20
28.75
11
26.75
21
22.25
0
LINE
8
0
10
26.75
20
20.25
11
26.75
21
13.75
0
LINE
8
0
10
26.75
20
11.75
11
26.75
21
5.25
0
LINE
8
0
10
26.75
20
3.25
11
26.75
21
-3.25
0
LINE
8
0
10
26.75
20
-5.25
11
26.75
21
-7.5
0
LINE
8
0
10
26
20
-8.25
11
10
21
-8.25
0
LINE
8
0
10
26
20
42.75
11
23.5
21
42.75
0
LINE
8
0
10
12.5
20
42.75
11
10
21
42.75
0
LINE
8
0
10
21.5
20
42.75
11
14.5
21
42.75
0
LINE
8
0
10
9.25
20
43.5
11
9.25
21
58.5
0
LINE
8
0
10
10
20
59.25
11
26
21
59.25
0
LINE
8
0
10
26.75
20
58.5
11
26.75
21
56.25
0
LINE
8
0
10
26.75
20
54.25
11
26.75
21
47.75
0
LINE
8
0
10
26.75
20
45.75
11
26.75
21
43.5
0
LINE
8
0
10
27.25
20
-8.25
11
27.25
21
-5.25
0
LINE
8
0
10
27.25
20
39.25
11
27.25
21
41.5
0
LINE
8
0
10
27.25
20
30.75
11
27.25
21
37.25
0
LINE
8
0
10
27.25
20
22.25
11
27.25
21
28.75
0
LINE
8
0
10
27.25
20
13.75
11
27.25
21
20.25
0
LINE
8
0
10
27.25
20
5.25
11
27.25
21
11.75
0
LINE
8
0
10
27.25
20
-3.25
11
27.25
21
3.25
0
LINE
8
0
10
28
20
42.25
11
30.5
21
42.25
0
LINE
8
0
10
32.5
20
42.25
11
39.5
21
42.25
0
LINE
8
0
10
41.5
20
42.25
11
44.5
21
42.25
0
LINE
8
0
10
45.25
20
43
11
45.25
21
47.5
0
LINE
8
0
10
46
20
48.25
11
48.5
21
48.25
0
LINE
8
0
10
50.5
20
48.25
11
57.5
21
48.25
0
LINE
8
0
10
59.5
20
48.25
11
62.5
21
48.25
0
LINE
8
0
10
63.25
20
49
11
63.25
21
50.5
0
LINE
8
0
10
64
20
51.25
11
66.5
21
51.25
0
LINE
8
0
10
68.5
20
51.25
11
75.5
21
51.25
0
LINE
8
0
10
77.5
20
51.25
11
80
21
51.25
0
LINE
8
0
10
80.75
20
50.5
11
80.75
21
50
0
LINE
8
0
10
81.5
20
49.25
11
84.5
21
49.25
0
LINE
8
0
10
86.5
20
49.25
11
93.5
21
49.25
0
LINE
8
0
10
95.5
20
49.25
11
98
21
49.25
0
LINE
8
0
10
98.75
20
48.5
11
98.75
21
48.25
0
LINE
8
0
10
99.5
20
47.5
11
102.5
21
47.5
0
LINE
8
0
10
104.5
20
47.5
11
111.5
21
47.5
0
LINE
8
0
10
113.5
20
47.5
11
137.89
21
47.5
0
LINE
8
0
10
138.64
20
46.75
11
138.64
21
41.75
0
LINE
8
0
10
138.64
20
36.75
11
138.64
21
3.5
0
LINE
8
0
10
138.64
20
-1.5
11
138.64
21
-4.4981454
0
LINE
8
0
10
27.5
20
-8.25
11
27.25
21
-8.25
0
LINE
8
0
10
61.25
20
-20
11
95.4698316
21
-20
0
LINE
8
0
10
60.5
20
-19.25
11
60.5
21
-9.25
0
LINE
8
0
10
138.64
20
-4.4981454
11
138.6419348
21
-4.4988496
0
LINE
8
0
10
138.6419348
20
-4.4988496
11
130.0059262
21
-28.2260882
0
LINE
8
0
10
129.0446416
20
-28.6743426
11
114.2593332
21
-23.2929304
0
LINE
8
0
10
114.229415
20
-23.2827497
11
113.5551803
21
-23.0690572
0
LINE
8
0
10
113.4588195
20
-23.0454016
11
96.8008402
21
-20.1081504
0
LINE
8
0
10
96.7308426
20
-20.0991792
11
95.5300701
21
-20.002423
0
LINE
8
0
10
27.5
20
-8.5
11
59.75
21
-8.5
0
LINE
8
0
10
27.5
20
-8.25
11
27.5
21
-8.5
0
ARC
8
0
10
28
20
41.5
40
0.75
50
90
51
180
0
ARC
8
0
10
44.5
20
43
40
0.75
50
270
51
0
0
ARC
8
0
10
46
20
47.5
40
0.75
50
90
51
180
0
ARC
8
0
10
62.5
20
49
40
0.75
50
270
51
0
0
ARC
8
0
10
64
20
50.5
40
0.75
50
90
51
180
0
ARC
8
0
10
80
20
50.5
40
0.75
50
0
51
90
0
ARC
8
0
10
81.5
20
50
40
0.75
50
180
51
270
0
ARC
8
0
10
98
20
48.5
40
0.75
50
0
51
90
0
ARC
8
0
10
99.5
20
48.25
40
0.75
50
180
51
270
0
ARC
8
0
10
137.89
20
46.75
40
0.75
50
0
51
90
0
ARC
8
0
10
129.3011567
20
-27.9695731
40
0.75
50
250.0000019
51
340.0000019
0
ARC
8
0
10
114.0028181
20
-23.9976999
40
0.75
50
70.0000019
51
72.4144675
0
ARC
8
0
10
113.3285834
20
-23.7840074
40
0.75
50
72.4144675
51
79.9999992
0
ARC
8
0
10
96.6706041
20
-20.8467562
40
0.75
50
79.9999992
51
85.3931554
0
ARC
8
0
10
95.4698316
20
-20.75
40
0.75
50
85.3931554
51
90
0
ARC
8
0
10
61.25
20
-19.25
40
0.75
50
180
51
270
0
ARC
8
0
10
59.75
20
-9.25
40
0.75
50
0
51
90
0
ARC
8
0
10
28
20
43.5
40
0.75
50
180
51
270
0
ARC
8
0
10
28
20
58.5
40
0.75
50
90
51
180
0
ARC
8
0
10
44.5
20
60
40
0.75
50
270
51
0
0
ARC
8
0
10
46
20
64.5
40
0.75
50
90
51
180
0
ARC
8
0
10
62.5
20
66
40
0.75
50
270
51
0
0
ARC
8
0
10
64
20
67.5
40
0.75
50
90
51
180
0
ARC
8
0
10
80
20
67.5
40
0.75
50
0
51
90
0
ARC
8
0
10
81.5
20
67
40
0.75
50
180
51
270
0
ARC
8
0
10
98
20
65.5
40
0.75
50
0
51
90
0
ARC
8
0
10
99.5
20
65.25
40
0.75
50
180
51
270
0
ARC
8
0
10
116
20
63.75
40
0.75
50
0
51
90
0
ARC
8
0
10
116
20
48.75
40
0.75
50
270
51
0
0
ARC
8
0
10
100
20
48.75
40
0.75
50
180
51
270
0
ARC
8
0
10
98.5
20
49
40
0.75
50
0
51
90
0
ARC
8
0
10
82
20
50.5
40
0.75
50
180
51
270
0
ARC
8
0
10
80.5
20
51
40
0.75
50
0
51
90
0
ARC
8
0
10
63.5
20
51
40
0.75
50
90
51
180
0
ARC
8
0
10
62
20
49.5
40
0.75
50
270
51
0
0
ARC
8
0
10
45.5
20
48
40
0.75
50
90
51
180
0
ARC
8
0
10
44
20
43.5
40
0.75
50
270
51
0
0
ARC
8
0
10
10
20
41.5
40
0.75
50
90
51
180
0
ARC
8
0
10
26
20
41.5
40
0.75
50
0
51
90
0
ARC
8
0
10
26
20
-7.5
40
0.75
50
270
51
0
0
ARC
8
0
10
10
20
-7.5
40
0.75
50
180
51
270
0
ARC
8
0
10
10
20
43.5
40
0.75
50
180
51
270
0
ARC
8
0
10
10
20
58.5
40
0.75
50
90
51
180
0
ARC
8
0
10
26
20
58.5
40
0.75
50
0
51
90
0
ARC
8
0
10
26
20
43.5
40
0.75
50
270
51
0
0
LINE
8
0
10
234.17
20
42.75
11
236.67
21
42.75
0
LINE
8
0
10
247.67
20
42.75
11
250.17
21
42.75
0
LINE
8
0
10
238.67
20
42.75
11
245.67
21
42.75
0
LINE
8
0
10
250.92
20
43.5
11
250.92
21
45.75
0
LINE
8
0
10
250.92
20
56.25
11
250.92
21
58.5
0
LINE
8
0
10
250.92
20
47.75
11
250.92
21
54.25
0
LINE
8
0
10
250.17
20
59.25
11
233.67
21
59.25
0
LINE
8
0
10
232.92
20
60
11
232.92
21
64.5
0
LINE
8
0
10
232.17
20
65.25
11
215.67
21
65.25
0
LINE
8
0
10
214.92
20
66
11
214.92
21
67.5
0
LINE
8
0
10
214.17
20
68.25
11
198.17
21
68.25
0
LINE
8
0
10
197.42
20
67.5
11
197.42
21
67
0
LINE
8
0
10
196.67
20
66.25
11
180.17
21
66.25
0
LINE
8
0
10
179.42
20
65.5
11
179.42
21
65.25
0
LINE
8
0
10
178.67
20
64.5
11
162.17
21
64.5
0
LINE
8
0
10
161.42
20
63.75
11
161.42
21
48.75
0
LINE
8
0
10
162.17
20
48
11
164.67
21
48
0
LINE
8
0
10
175.67
20
48
11
178.17
21
48
0
LINE
8
0
10
166.67
20
48
11
173.67
21
48
0
LINE
8
0
10
178.92
20
48.75
11
178.92
21
49
0
LINE
8
0
10
179.67
20
49.75
11
182.67
21
49.75
0
LINE
8
0
10
193.67
20
49.75
11
196.17
21
49.75
0
LINE
8
0
10
184.67
20
49.75
11
191.67
21
49.75
0
LINE
8
0
10
196.92
20
50.5
11
196.92
21
51
0
LINE
8
0
10
197.67
20
51.75
11
200.67
21
51.75
0
LINE
8
0
10
211.67
20
51.75
11
214.67
21
51.75
0
LINE
8
0
10
202.67
20
51.75
11
209.67
21
51.75
0
LINE
8
0
10
215.42
20
51
11
215.42
21
49.5
0
LINE
8
0
10
216.17
20
48.75
11
218.67
21
48.75
0
LINE
8
0
10
229.67
20
48.75
11
232.67
21
48.75
0
LINE
8
0
10
220.67
20
48.75
11
227.67
21
48.75
0
LINE
8
0
10
233.42
20
48
11
233.42
21
43.5
0
LINE
8
0
10
268.92
20
-7.5
11
268.92
21
41.5
0
LINE
8
0
10
268.17
20
42.25
11
265.67
21
42.25
0
LINE
8
0
10
263.67
20
42.25
11
256.67
21
42.25
0
LINE
8
0
10
254.67
20
42.25
11
252.17
21
42.25
0
LINE
8
0
10
251.42
20
41.5
11
251.42
21
39.25
0
LINE
8
0
10
251.42
20
37.25
11
251.42
21
30.75
0
LINE
8
0
10
251.42
20
28.75
11
251.42
21
22.25
0
LINE
8
0
10
251.42
20
20.25
11
251.42
21
13.75
0
LINE
8
0
10
251.42
20
11.75
11
251.42
21
5.25
0
LINE
8
0
10
251.42
20
3.25
11
251.42
21
-3.25
0
LINE
8
0
10
251.42
20
-5.25
11
251.42
21
-7.5
0
LINE
8
0
10
252.17
20
-8.25
11
268.17
21
-8.25
0
LINE
8
0
10
252.17
20
42.75
11
254.67
21
42.75
0
LINE
8
0
10
265.67
20
42.75
11
268.17
21
42.75
0
LINE
8
0
10
256.67
20
42.75
11
263.67
21
42.75
0
LINE
8
0
10
268.92
20
43.5
11
268.92
21
58.5
0
LINE
8
0
10
268.17
20
59.25
11
252.17
21
59.25
0
LINE
8
0
10
251.42
20
58.5
11
251.42
21
56.25
0
LINE
8
0
10
251.42
20
54.25
11
251.42
21
47.75
0
LINE
8
0
10
251.42
20
45.75
11
251.42
21
43.5
0
LINE
8
0
10
250.92
20
-7.5
11
250.92
21
-5.25
0
LINE
8
0
10
250.92
20
39.25
11
250.92
21
41.5
0
LINE
8
0
10
250.92
20
30.75
11
250.92
21
37.25
0
LINE
8
0
10
250.92
20
22.25
11
250.92
21
28.75
0
LINE
8
0
10
250.92
20
13.75
11
250.92
21
20.25
0
LINE
8
0
10
250.92
20
5.25
11
250.92
21
11.75
0
LINE
8
0
10
250.92
20
-3.25
11
250.92
21
3.25
0
LINE
8
0
10
250.17
20
42.25
11
247.67
21
42.25
0
LINE
8
0
10
245.67
20
42.25
11
238.67
21
42.25
0
LINE
8
0
10
236.67
20
42.25
11
233.67
21
42.25
0
LINE
8
0
10
232.92
20
43
11
232.92
21
47.5
0
LINE
8
0
10
232.17
20
48.25
11
229.67
21
48.25
0
LINE
8
0
10
227.67
20
48.25
11
220.67
21
48.25
0
LINE
8
0
10
218.67
20
48.25
11
215.67
21
48.25
0
LINE
8
0
10
214.92
20
49
11
214.92
21
50.5
0
LINE
8
0
10
214.17
20
51.25
11
211.67
21
51.25
0
LINE
8
0
10
209.67
20
51.25
11
202.67
21
51.25
0
LINE
8
0
10
200.67
20
51.25
11
198.17
21
51.25
0
LINE
8
0
10
197.42
20
50.5
11
197.42
21
50
0
LINE
8
0
10
196.67
20
49.25
11
193.67
21
49.25
0
LINE
8
0
10
191.67
20
49.25
11
184.67
21
49.25
0
LINE
8
0
10
182.67
20
49.25
11
180.17
21
49.25
0
LINE
8
0
10
179.42
20
48.5
11
179.42
21
48.25
0
LINE
8
0
10
178.67
20
47.5
11
175.67
21
47.5
0
LINE
8
0
10
173.67
20
47.5
11
166.67
21
47.5
0
LINE
8
0
10
164.67
20
47.5
11
140.28
21
47.5
0
LINE
8
0
10
139.53
20
46.75
11
139.53
21
41.75
0
LINE
8
0
10
139.53
20
36.75
11
139.53
21
3.5
0
LINE
8
0
10
139.53
20
-1.5
11
139.53
21
-4.4981454
0
LINE
8
0
10
218.42
20
-8.25
11
250.17
21
-8.25
0
LINE
8
0
10
182.7001684
20
-20
11
216.92
21
-20
0
LINE
8
0
10
217.67
20
-19.25
11
217.67
21
-9
0
LINE
8
0
10
139.53
20
-4.4981454
11
139.5280652
21
-4.4988496
0
LINE
8
0
10
139.5280652
20
-4.4988496
11
148.1640738
21
-28.2260882
0
LINE
8
0
10
149.1253584
20
-28.6743426
11
163.9106668
21
-23.2929304
0
LINE
8
0
10
163.940585
20
-23.2827497
11
164.6148197
21
-23.0690572
0
LINE
8
0
10
164.7111805
20
-23.0454016
11
181.3691598
21
-20.1081504
0
LINE
8
0
10
181.4391574
20
-20.0991792
11
182.6399299
21
-20.002423
0
ARC
8
0
10
250.17
20
41.5
40
0.75
50
0
51
90
0
ARC
8
0
10
233.67
20
43
40
0.75
50
180
51
270
0
ARC
8
0
10
232.17
20
47.5
40
0.75
50
0
51
90
0
ARC
8
0
10
215.67
20
49
40
0.75
50
180
51
270
0
ARC
8
0
10
214.17
20
50.5
40
0.75
50
0
51
90
0
ARC
8
0
10
198.17
20
50.5
40
0.75
50
90
51
180
0
ARC
8
0
10
196.67
20
50
40
0.75
50
270
51
0
0
ARC
8
0
10
180.17
20
48.5
40
0.75
50
90
51
180
0
ARC
8
0
10
178.67
20
48.25
40
0.75
50
270
51
0
0
ARC
8
0
10
140.28
20
46.75
40
0.75
50
90
51
180
0
ARC
8
0
10
148.8688433
20
-27.9695731
40
0.75
50
199.9999981
51
289.9999981
0
ARC
8
0
10
164.1671819
20
-23.9976999
40
0.75
50
107.5855325
51
109.9999981
0
ARC
8
0
10
164.8414166
20
-23.7840074
40
0.75
50
100.0000008
51
107.5855325
0
ARC
8
0
10
181.4993959
20
-20.8467562
40
0.75
50
94.6068446
51
100.0000008
0
ARC
8
0
10
182.7001684
20
-20.75
40
0.75
50
90
51
94.6068446
0
ARC
8
0
10
216.92
20
-19.25
40
0.75
50
270
51
0
0
ARC
8
0
10
218.42
20
-9
40
0.75
50
90
51
180
0
ARC
8
0
10
250.17
20
-7.5
40
0.75
50
270
51
0
0
ARC
8
0
10
250.17
20
43.5
40
0.75
50
270
51
0
0
ARC
8
0
10
250.17
20
58.5
40
0.75
50
0
51
90
0
ARC
8
0
10
233.67
20
60
40
0.75
50
180
51
270
0
ARC
8
0
10
232.17
20
64.5
40
0.75
50
0
51
90
0
ARC
8
0
10
215.67
20
66
40
0.75
50
180
51
270
0
ARC
8
0
10
214.17
20
67.5
40
0.75
50
0
51
90
0
ARC
8
0
10
198.17
20
67.5
40
0.75
50
90
51
180
0
ARC
8
0
10
196.67
20
67
40
0.75
50
270
51
0
0
ARC
8
0
10
180.17
20
65.5
40
0.75
50
90
51
180
0
ARC
8
0
10
178.67
20
65.25
40
0.75
50
270
51
0
0
ARC
8
0
10
162.17
20
63.75
40
0.75
50
90
51
180
0
ARC
8
0
10
162.17
20
48.75
40
0.75
50
180
51
270
0
ARC
8
0
10
178.17
20
48.75
40
0.75
50
270
51
0
0
ARC
8
0
10
179.67
20
49
40
0.75
50
90
51
180
0
ARC
8
0
10
196.17
20
50.5
40
0.75
50
270
51
0
0
ARC
8
0
10
197.67
20
51
40
0.75
50
90
51
180
0
ARC
8
0
10
214.67
20
51
40
0.75
50
0
51
90
0
ARC
8
0
10
216.17
20
49.5
40
0.75
50
180
51
270
0
ARC
8
0
10
232.67
20
48
40
0.75
50
0
51
90
0
ARC
8
0
10
234.17
20
43.5
40
0.75
50
180
51
270
0
ARC
8
0
10
268.17
20
41.5
40
0.75
50
0
51
90
0
ARC
8
0
10
252.17
20
41.5
40
0.75
50
90
51
180
0
ARC
8
0
10
252.17
20
-7.5
40
0.75
50
180
51
270
0
ARC
8
0
10
268.17
20
-7.5
40
0.75
50
270
51
0
0
ARC
8
0
10
268.17
20
43.5
40
0.75
50
270
51
0
0
ARC
8
0
10
268.17
20
58.5
40
0.75
50
0
51
90
0
ARC
8
0
10
252.17
20
58.5
40
0.75
50
90
51
180
0
ARC
8
0
10
252.17
20
43.5
40
0.75
50
180
51
270
0
LINE
8
0
10
14.5
20
42.25
11
14.5
21
42.75
0
LINE
8
0
10
12.5
20
42.75
11
12.5
21
42.25
0
LINE
8
0
10
23.5
20
42.25
11
23.5
21
42.75
0
LINE
8
0
10
21.5
20
42.75
11
21.5
21
42.25
0
LINE
8
0
10
32.5
20
42.25
11
32.5
21
42.75
0
LINE
8
0
10
30.5
20
42.75
11
30.5
21
42.25
0
LINE
8
0
10
41.5
20
42.25
11
41.5
21
42.75
0
LINE
8
0
10
39.5
20
42.75
11
39.5
21
42.25
0
LINE
8
0
10
50.5
20
48.25
11
50.5
21
48.75
0
LINE
8
0
10
48.5
20
48.75
11
48.5
21
48.25
0
LINE
8
0
10
59.5
20
48.25
11
59.5
21
48.75
0
LINE
8
0
10
57.5
20
48.75
11
57.5
21
48.25
0
LINE
8
0
10
68.5
20
51.25
11
68.5
21
51.75
0
LINE
8
0
10
66.5
20
51.75
11
66.5
21
51.25
0
LINE
8
0
10
77.5
20
51.25
11
77.5
21
51.75
0
LINE
8
0
10
75.5
20
51.75
11
75.5
21
51.25
0
LINE
8
0
10
86.5
20
49.25
11
86.5
21
49.75
0
LINE
8
0
10
84.5
20
49.75
11
84.5
21
49.25
0
LINE
8
0
10
95.5
20
49.25
11
95.5
21
49.75
0
LINE
8
0
10
93.5
20
49.75
11
93.5
21
49.25
0
LINE
8
0
10
104.5
20
47.5
11
104.5
21
48
0
LINE
8
0
10
102.5
20
48
11
102.5
21
47.5
0
LINE
8
0
10
113.5
20
47.5
11
113.5
21
48
0
LINE
8
0
10
111.5
20
48
11
111.5
21
47.5
0
LINE
8
0
10
26.75
20
54.25
11
27.25
21
54.25
0
LINE
8
0
10
27.25
20
56.25
11
26.75
21
56.25
0
LINE
8
0
10
26.75
20
45.75
11
27.25
21
45.75
0
LINE
8
0
10
27.25
20
47.75
11
26.75
21
47.75
0
LINE
8
0
10
26.75
20
37.25
11
27.25
21
37.25
0
LINE
8
0
10
27.25
20
39.25
11
26.75
21
39.25
0
LINE
8
0
10
26.75
20
28.75
11
27.25
21
28.75
0
LINE
8
0
10
27.25
20
30.75
11
26.75
21
30.75
0
LINE
8
0
10
26.75
20
20.25
11
27.25
21
20.25
0
LINE
8
0
10
27.25
20
22.25
11
26.75
21
22.25
0
LINE
8
0
10
26.75
20
11.75
11
27.25
21
11.75
0
LINE
8
0
10
27.25
20
13.75
11
26.75
21
13.75
0
LINE
8
0
10
26.75
20
3.25
11
27.25
21
3.25
0
LINE
8
0
10
27.25
20
5.25
11
26.75
21
5.25
0
LINE
8
0
10
26.75
20
-5.25
11
27.25
21
-5.25
0
LINE
8
0
10
27.25
20
-3.25
11
26.75
21
-3.25
0
LINE
8
0
10
265.67
20
42.25
11
265.67
21
42.75
0
LINE
8
0
10
263.67
20
42.75
11
263.67
21
42.25
0
LINE
8
0
10
256.67
20
42.25
11
256.67
21
42.75
0
LINE
8
0
10
254.67
20
42.75
11
254.67
21
42.25
0
LINE
8
0
10
247.67
20
42.25
11
247.67
21
42.75
0
LINE
8
0
10
245.67
20
42.75
11
245.67
21
42.25
0
LINE
8
0
10
238.67
20
42.25
11
238.67
21
42.75
0
LINE
8
0
10
236.67
20
42.75
11
236.67
21
42.25
0
LINE
8
0
10
229.67
20
48.25
11
229.67
21
48.75
0
LINE
8
0
10
227.67
20
48.75
11
227.67
21
48.25
0
LINE
8
0
10
220.67
20
48.25
11
220.67
21
48.75
0
LINE
8
0
10
218.67
20
48.75
11
218.67
21
48.25
0
LINE
8
0
10
211.67
20
51.25
11
211.67
21
51.75
0
LINE
8
0
10
209.67
20
51.75
11
209.67
21
51.25
0
LINE
8
0
10
202.67
20
51.25
11
202.67
21
51.75
0
LINE
8
0
10
200.67
20
51.75
11
200.67
21
51.25
0
LINE
8
0
10
193.67
20
49.25
11
193.67
21
49.75
0
LINE
8
0
10
191.67
20
49.75
11
191.67
21
49.25
0
LINE
8
0
10
184.67
20
49.25
11
184.67
21
49.75
0
LINE
8
0
10
182.67
20
49.75
11
182.67
21
49.25
0
LINE
8
0
10
175.67
20
47.5
11
175.67
21
48
0
LINE
8
0
10
173.67
20
48
11
173.67
21
47.5
0
LINE
8
0
10
166.67
20
47.5
11
166.67
21
48
0
LINE
8
0
10
164.67
20
48
11
164.67
21
47.5
0
LINE
8
0
10
250.92
20
54.25
11
251.42
21
54.25
0
LINE
8
0
10
251.42
20
56.25
11
250.92
21
56.25
0
LINE
8
0
10
250.92
20
45.75
11
251.42
21
45.75
0
LINE
8
0
10
251.42
20
47.75
11
250.92
21
47.75
0
LINE
8
0
10
250.92
20
37.25
11
251.42
21
37.25
0
LINE
8
0
10
251.42
20
39.25
11
250.92
21
39.25
0
LINE
8
0
10
250.92
20
28.75
11
251.42
21
28.75
0
LINE
8
0
10
251.42
20
30.75
11
250.92
21
30.75
0
LINE
8
0
10
250.92
20
20.25
11
251.42
21
20.25
0
LINE
8
0
10
251.42
20
22.25
11
250.92
21
22.25
0
LINE
8
0
10
250.92
20
11.75
11
251.42
21
11.75
0
LINE
8
0
10
251.42
20
13.75
11
250.92
21
13.75
0
LINE
8
0
10
250.92
20
3.25
11
251.42
21
3.25
0
LINE
8
0
10
251.42
20
5.25
11
250.92
21
5.25
0
LINE
8
0
10
250.92
20
-5.25
11
251.42
21
-5.25
0
LINE
8
0
10
251.42
20
-3.25
11
250.92
21
-3.25
0
LINE
8
0
10
138.64
20
36.75
11
139.53
21
36.75
0
LINE
8
0
10
139.53
20
41.75
11
138.64
21
41.75
0
LINE
8
0
10
138.64
20
-1.5
11
139.53
21
-1.5
0
LINE
8
0
10
139.53
20
3.5
11
138.64
21
3.5
0
ENDSEC
0
EOF