0
SECTION
2
HEADER
9
$INSUNITS
70
4
0
ENDSEC
0
SECTION
2
TABLES
0
TABLE
2
LTYPE
0
LTYPE
72
65
70
64
2
CONTINUOUS
3
______
73
0
40
0
0
ENDTAB
0
TABLE
2
LAYER
0
ENDTAB
0
ENDSEC
0
SECTION
2
ENTITIES
0
LINE
8
0
10
11
20
-7
11
25
21
-7
0
LINE
8
0
10
25
20
-7
11
25
21
7
0
LINE
8
0
10
25
20
7
11
11
21
7
0
LINE
8
0
10
11
20
7
11
11
21
-7
0
LINE
8
0
10
11
20
10
11
25
21
10
0
LINE
8
0
10
25
20
10
11
25
21
24
0
LINE
8
0
10
25
20
24
11
11
21
24
0
LINE
8
0
10
11
20
24
11
11
21
10
0
LINE
8
0
10
11
20
27
11
25
21
27
0
LINE
8
0
10
25
20
27
11
25
21
41
0
LINE
8
0
10
25
20
41
11
11
21
41
0
LINE
8
0
10
11
20
41
11
11
21
27
0
LINE
8
0
10
11
20
44
11
25
21
44
0
LINE
8
0
10
25
20
44
11
25
21
58
0
LINE
8
0
10
25
20
58
11
11
21
58
0
LINE
8
0
10
11
20
58
11
11
21
44
0
LINE
8
0
10
29
20
-7
11
43
21
-7
0
LINE
8
0
10
43
20
-7
11
43
21
7
0
LINE
8
0
10
43
20
7
11
29
21
7
0
LINE
8
0
10
29
20
7
11
29
21
-7
0
LINE
8
0
10
29
20
10
11
43
21
10
0
LINE
8
0
10
43
20
10
11
43
21
24
0
LINE
8
0
10
43
20
24
11
29
21
24
0
LINE
8
0
10
29
20
24
11
29
21
10
0
LINE
8
0
10
29
20
27
11
43
21
27
0
LINE
8
0
10
43
20
27
11
43
21
41
0
LINE
8
0
10
43
20
41
11
29
21
41
0
LINE
8
0
10
29
20
41
11
29
21
27
0
LINE
8
0
10
29
20
44
11
43
21
44
0
LINE
8
0
10
43
20
44
11
43
21
58
0
LINE
8
0
10
43
20
58
11
29
21
58
0
LINE
8
0
10
29
20
58
11
29
21
44
0
LINE
8
0
10
47
20
-1
11
61
21
-1
0
LINE
8
0
10
61
20
-1
11
61
21
13
0
LINE
8
0
10
61
20
13
11
47
21
13
0
LINE
8
0
10
47
20
13
11
47
21
-1
0
LINE
8
0
10
47
20
16
11
61
21
16
0
LINE
8
0
10
61
20
16
11
61
21
30
0
LINE
8
0
10
61
20
30
11
47
21
30
0
LINE
8
0
10
47
20
30
11
47
21
16
0
LINE
8
0
10
47
20
33
11
61
21
33
0
LINE
8
0
10
61
20
33
11
61
21
47
0
LINE
8
0
10
61
20
47
11
47
21
47
0
LINE
8
0
10
47
20
47
11
47
21
33
0
LINE
8
0
10
47
20
50
11
61
21
50
0
LINE
8
0
10
61
20
50
11
61
21
64
0
LINE
8
0
10
61
20
64
11
47
21
64
0
LINE
8
0
10
47
20
64
11
47
21
50
0
LINE
8
0
10
65
20
2
11
79
21
2
0
LINE
8
0
10
79
20
2
11
79
21
16
0
LINE
8
0
10
79
20
16
11
65
21
16
0
LINE
8
0
10
65
20
16
11
65
21
2
0
LINE
8
0
10
65
20
19
11
79
21
19
0
LINE
8
0
10
79
20
19
11
79
21
33
0
LINE
8
0
10
79
20
33
11
65
21
33
0
LINE
8
0
10
65
20
33
11
65
21
19
0
LINE
8
0
10
65
20
36
11
79
21
36
0
LINE
8
0
10
79
20
36
11
79
21
50
0
LINE
8
0
10
79
20
50
11
65
21
50
0
LINE
8
0
10
65
20
50
11
65
21
36
0
LINE
8
0
10
65
20
53
11
79
21
53
0
LINE
8
0
10
79
20
53
11
79
21
67
0
LINE
8
0
10
79
20
67
11
65
21
67
0
LINE
8
0
10
65
20
67
11
65
21
53
0
LINE
8
0
10
83
20
0
11
97
21
0
0
LINE
8
0
10
97
20
0
11
97
21
14
0
LINE
8
0
10
97
20
14
11
83
21
14
0
LINE
8
0
10
83
20
14
11
83
21
0
0
LINE
8
0
10
83
20
17
11
97
21
17
0
LINE
8
0
10
97
20
17
11
97
21
31
0
LINE
8
0
10
97
20
31
11
83
21
31
0
LINE
8
0
10
83
20
31
11
83
21
17
0
LINE
8
0
10
83
20
34
11
97
21
34
0
LINE
8
0
10
97
20
34
11
97
21
48
0
LINE
8
0
10
97
20
48
11
83
21
48
0
LINE
8
0
10
83
20
48
11
83
21
34
0
LINE
8
0
10
83
20
51
11
97
21
51
0
LINE
8
0
10
97
20
51
11
97
21
65
0
LINE
8
0
10
97
20
65
11
83
21
65
0
LINE
8
0
10
83
20
65
11
83
21
51
0
LINE
8
0
10
101
20
-1.75
11
115
21
-1.75
0
LINE
8
0
10
115
20
-1.75
11
115
21
12.25
0
LINE
8
0
10
115
20
12.25
11
101
21
12.25
0
LINE
8
0
10
101
20
12.25
11
101
21
-1.75
0
LINE
8
0
10
101
20
15.25
11
115
21
15.25
0
LINE
8
0
10
115
20
15.25
11
115
21
29.25
0
LINE
8
0
10
115
20
29.25
11
101
21
29.25
0
LINE
8
0
10
101
20
29.25
11
101
21
15.25
0
LINE
8
0
10
101
20
32.25
11
115
21
32.25
0
LINE
8
0
10
115
20
32.25
11
115
21
46.25
0
LINE
8
0
10
115
20
46.25
11
101
21
46.25
0
LINE
8
0
10
101
20
46.25
11
101
21
32.25
0
LINE
8
0
10
101
20
49.25
11
115
21
49.25
0
LINE
8
0
10
115
20
49.25
11
115
21
63.25
0
LINE
8
0
10
115
20
63.25
11
101
21
63.25
0
LINE
8
0
10
101
20
63.25
11
101
21
49.25
0
LINE
8
0
10
62
20
-19
11
76
21
-19
0
LINE
8
0
10
76
20
-19
11
76
21
-5
0
LINE
8
0
10
76
20
-5
11
62
21
-5
0
LINE
8
0
10
62
20
-5
11
62
21
-19
0
LINE
8
0
10
80
20
-19
11
94
21
-19
0
LINE
8
0
10
94
20
-19
11
94
21
-5
0
LINE
8
0
10
94
20
-5
11
80
21
-5
0
LINE
8
0
10
80
20
-5
11
80
21
-19
0
LINE
8
0
10
98.4169119
20
-19.3776808
11
112.2042204
21
-21.8087553
0
LINE
8
0
10
112.2042204
20
-21.8087553
11
114.6352949
21
-8.0214468
0
LINE
8
0
10
114.6352949
20
-8.0214468
11
100.8479864
21
-5.5903723
0
LINE
8
0
10
100.8479864
20
-5.5903723
11
98.4169119
21
-19.3776808
0
LINE
8
0
10
115.996042
20
-22.8608629
11
129.1517386
21
-27.6491449
0
LINE
8
0
10
129.1517386
20
-27.6491449
11
133.9400206
21
-14.4934483
0
LINE
8
0
10
133.9400206
20
-14.4934483
11
120.784324
21
-9.7051663
0
LINE
8
0
10
120.784324
20
-9.7051663
11
115.996042
21
-22.8608629
0
ENDSEC
0
EOF